<svg width="31" height="31" viewBox="0 0 31 31" fill="none" xmlns="http://www.w3.org/2000/svg">
<path fill-rule="evenodd" clip-rule="evenodd" d="M6.19998 13.95C6.19998 11.8946 7.01649 9.92333 8.4699 8.46992C9.92331 7.01652 11.8945 6.2 13.95 6.2C16.0054 6.2 17.9766 7.01652 19.4301 8.46992C20.8835 9.92333 21.7 11.8946 21.7 13.95C21.7 16.0054 20.8835 17.9767 19.4301 19.4301C17.9766 20.8835 16.0054 21.7 13.95 21.7C11.8945 21.7 9.92331 20.8835 8.4699 19.4301C7.01649 17.9767 6.19998 16.0054 6.19998 13.95ZM13.95 3.1C12.2308 3.1 10.5362 3.50854 9.00584 4.29195C7.4755 5.07535 6.15324 6.2112 5.148 7.60589C4.14276 9.00058 3.48334 10.6142 3.22407 12.3137C2.9648 14.0133 3.1131 15.7501 3.65676 17.3811C4.20042 19.0121 5.12387 20.4905 6.35101 21.6946C7.57816 22.8986 9.07386 23.7939 10.7149 24.3065C12.3559 24.8191 14.0952 24.9344 15.7895 24.6429C17.4838 24.3514 19.0846 23.6615 20.46 22.63C20.504 22.6886 20.5522 22.7441 20.6041 22.7959L25.2541 27.4459C25.5465 27.7282 25.938 27.8844 26.3444 27.8809C26.7508 27.8774 27.1396 27.7144 27.4269 27.427C27.7143 27.1396 27.8773 26.7508 27.8809 26.3444C27.8844 25.938 27.7282 25.5465 27.4458 25.2542L22.7958 20.6042C22.744 20.5522 22.6886 20.5041 22.63 20.46C23.839 18.848 24.5752 16.9312 24.7561 14.9244C24.9371 12.9176 24.5556 10.9 23.6545 9.09773C22.7534 7.29549 21.3682 5.77977 19.6542 4.72044C17.9401 3.6611 15.965 3.1 13.95 3.1Z" fill="#0E2134"/>
</svg>
